<svg xmlns="http://www.w3.org/2000/svg" viewBox="0 0 900 720"><defs><linearGradient id="bg" x2="1" y2="1"><stop stop-color="#bdcabb"/><stop offset="1" stop-color="#e3e8d9"/></linearGradient><filter id="sh" x="-30%" y="-30%" width="170%" height="180%"><feDropShadow dx="10" dy="18" stdDeviation="15" flood-color="#274932" flood-opacity=".19"/></filter><pattern id="gr" width="14" height="14" patternUnits="userSpaceOnUse"><path d="M14 0H0V14" fill="none" stroke="#e7eade" stroke-width=".5"/></pattern><marker id="ar" markerWidth="6" markerHeight="6" refX="5" refY="3" orient="auto"><path d="m0 0 6 3-6 3Z" fill="#3c855a"/></marker></defs><rect width="900" height="720" fill="url(#bg)"/><path d="M0 0h260L900 560v160Z" fill="#fff" opacity=".13"/>
<g transform="translate(82 118) rotate(-5 360 230)" filter="url(#sh)"><rect width="740" height="470" fill="#fbfcf6" rx="3"/><rect width="740" height="60" fill="#2c385e"/><text x="30" y="38" fill="white" font-size="20" font-family="Arial" letter-spacing="1.3">PLAN DE CIRCULATION</text><text x="711" y="35" text-anchor="end" fill="#cfe1b5" font-family="Arial" font-size="9" letter-spacing="1">SITE TYPE / CONCEPT</text><rect x="25" y="80" width="565" height="320" fill="url(#gr)"/><g stroke="#9aa28f" stroke-width="2" fill="#ebeee4"><rect x="72" y="110" width="155" height="90"/><rect x="268" y="110" width="270" height="150"/><rect x="72" y="245" width="155" height="100"/><rect x="280" y="305" width="95" height="55"/><rect x="415" y="305" width="125" height="55"/></g><g font-family="Arial" font-size="11" fill="#757e6b" text-anchor="middle"><text x="149" y="155">ADMINISTRATION</text><text x="400" y="185">PRODUCTION</text><text x="150" y="290">STOCKAGE</text><text x="327" y="338">ACCUEIL</text><text x="475" y="338">EXPÉDITION</text></g><path d="M250 377V90H565V377" stroke="#3c855a" stroke-width="4" stroke-dasharray="9 5" marker-end="url(#ar)" fill="none"/><path d="M40 372H214v-145H40" fill="none" stroke="#c29b4f" stroke-width="4" stroke-dasharray="12 6"/><circle cx="252" cy="376" r="8" fill="#3c855a" stroke="#fff" stroke-width="3"/><rect x="603" y="95" width="112" height="280" fill="#f1f3e9"/><text x="618" y="122" font-family="Arial" font-size="9" fill="#2b3b58" letter-spacing="1">REPÈRES</text><path d="M618 153h22" stroke="#3c855a" stroke-width="3" stroke-dasharray="6 3"/><text x="618" y="172" font-family="Arial" font-size="8" fill="#78836e">PIÉTONS</text><path d="M618 206h22" stroke="#c29b4f" stroke-width="3" stroke-dasharray="6 3"/><text x="618" y="225" font-family="Arial" font-size="8" fill="#78836e">VÉHICULES</text><circle cx="625" cy="261" r="5" fill="#3c855a"/><text x="618" y="283" font-family="Arial" font-size="8" fill="#78836e">ACCÈS</text><path d="M25 417h690" stroke="#dee4d5"/><text x="30" y="444" font-family="Arial" font-size="8" fill="#8a9580" letter-spacing=".8">SCHÉMA ILLUSTRATIF · NE PAS UTILISER POUR LA CIRCULATION D’UN SITE RÉEL</text><text x="709" y="444" text-anchor="end" font-family="Arial" font-size="9" fill="#466946">KEYSAFE / 04</text></g></svg>
